<svg width="130" height="95" viewBox="0 0 130 95" fill="none" xmlns="http://www.w3.org/2000/svg">
<g clip-path="url(#clip0_30_8298)">
<g clip-path="url(#clip1_30_8298)">
<path fill-rule="evenodd" clip-rule="evenodd" d="M22.9546 80.3847C22.4668 78.0649 20.5751 77.4477 18.4545 77.2485C11.5948 76.6114 10.3802 81.7586 10.3802 83.9191C10.3802 87.6326 11.4555 90.6991 18.1957 90.6991C19.4302 90.6991 22.865 89.4247 22.865 87.3439H32.5422C32.1539 93.5166 21.7898 95.0001 17.2797 95.0001C7.92108 95.0001 -0.0934885 93.2478 0.294795 84.0485C0.573562 77.4477 6.79605 72.8181 19.2112 73.0969C26.1107 73.2562 32.7314 75.4166 32.7613 80.4146L22.9546 80.3847Z" fill="#02033B"/>
<path fill-rule="evenodd" clip-rule="evenodd" d="M119.947 80.3847C119.469 78.0649 117.577 77.4477 115.456 77.2485C108.597 76.6114 107.382 81.7586 107.382 83.9191C107.382 87.6326 108.457 90.6991 115.198 90.6991C116.432 90.6991 119.857 89.4247 119.857 87.3439H129.554C129.156 93.5166 118.802 95.0001 114.282 95.0001C104.923 95.0001 96.9085 93.2478 97.2967 84.0485C97.5755 77.4477 103.798 72.8181 116.213 73.0969C123.113 73.2562 129.733 75.4166 129.763 80.4146L119.947 80.3847Z" fill="#02033B"/>
<path fill-rule="evenodd" clip-rule="evenodd" d="M34.4336 73.5149H47.008L57.7406 88.6082H57.8202V73.5149H65.8845V94.4225H53.8378L42.5875 79.369H42.4979V94.4424H34.4336V73.5149Z" fill="#02033B"/>
<path fill-rule="evenodd" clip-rule="evenodd" d="M68.373 73.5149H83.6356C90.9831 73.5149 95.294 75.5658 95.294 78.6721C95.294 80.504 93.492 82.774 89.4598 83.441V83.5008C94.3084 83.7795 96.1005 86.8559 96.1005 88.6978C96.1005 92.3914 91.8891 94.4424 83.6853 94.4424H68.373V73.5149ZM77.204 81.639H79.7428C83.6455 81.639 85.7164 81.3303 85.7164 79.7075C85.7164 78.0847 83.994 77.3878 80.4895 77.3878H77.214V81.639H77.204ZM77.204 90.0518H79.7428C84.442 90.0518 86.1644 89.554 86.1644 87.9312C86.1644 86.3083 83.994 85.6214 80.4795 85.6214H77.214V90.0518H77.204Z" fill="#02033B"/>
<path fill-rule="evenodd" clip-rule="evenodd" d="M108.446 41.4269L72.4551 65.5005L84.5815 36.6779L90.3261 23.2672C92.5761 18.9662 96.9866 16.2183 101.835 16.0889C106.395 16.059 110.646 18.3887 113.066 22.2517C115.714 26.2341 115.863 32.6855 113.215 36.6878C111.97 38.5795 110.348 40.1923 108.456 41.4368" fill="#02033B"/>
<path fill-rule="evenodd" clip-rule="evenodd" d="M90.5256 18.6973L72.7243 60.7812L71.9677 56.1915L66.5815 21.6941C66.3226 19.7029 67.2286 17.7415 68.9112 16.6364L71.4599 15.1131C71.6093 14.5855 70.8626 14.4063 70.5141 14.237L65.5361 14.1872C64.889 7.02889 70.1657 0.70684 77.324 0.0497453C79.4247 -0.139418 81.5453 0.179173 83.4868 0.995564C88.3154 3.12614 91.4715 7.85524 91.5909 13.1319C91.5909 15.0335 91.2325 16.9251 90.5256 18.6873" fill="#02033B"/>
<path fill-rule="evenodd" clip-rule="evenodd" d="M56.3372 60.9307L38.8146 18.7472C36.913 14.0081 37.7294 8.61198 40.9452 4.6495C44.2108 0.816449 49.3879 -0.796421 54.2564 0.487901C58.7764 1.822 62.2809 5.40616 63.5055 9.95604C63.9137 11.7083 64.0232 13.5103 63.8241 15.3024L56.3372 60.9307Z" fill="#02033B"/>
<path fill-rule="evenodd" clip-rule="evenodd" d="M18.882 39.9036C15.3576 36.9367 13.5954 32.3669 14.2226 27.8071C14.9096 22.7295 18.3643 18.4484 23.183 16.6962C27.8424 15.1829 32.9598 16.4274 36.4045 19.912C37.7287 21.2461 38.7741 22.839 39.4809 24.5813L56.4061 65.5701L18.882 39.9036Z" fill="#02033B"/>
<path fill-rule="evenodd" clip-rule="evenodd" d="M15.0305 69.8511C10.4906 69.4131 6.50817 66.6254 4.53689 62.5036C2.33661 57.8343 2.85433 52.3386 5.8909 48.157C9.15646 44.2443 13.8557 42.2731 18.6445 43.2487C20.4665 43.5873 22.2088 44.314 23.742 45.3594L60.1809 69.8511H15.0305Z" fill="#02033B"/>
<path fill-rule="evenodd" clip-rule="evenodd" d="M113.963 69.8511C118.513 69.423 122.505 66.6254 124.456 62.4937C126.657 57.8243 126.139 52.3286 123.112 48.157C119.847 44.2443 115.148 42.2731 110.349 43.2487C108.527 43.5972 106.785 44.314 105.251 45.3594L68.8125 69.8511H113.963Z" fill="#02033B"/>
</g>
</g>
<defs>
<clipPath id="clip0_30_8298">
<rect width="130" height="95" fill="white"/>
</clipPath>
<clipPath id="clip1_30_8298">
<rect width="129.428" height="95" fill="white" transform="translate(0.285156)"/>
</clipPath>
</defs>
</svg>
