<svg width="157" height="54" viewBox="0 0 157 54" fill="none" xmlns="http://www.w3.org/2000/svg">
<path d="M31.4801 33.9071C30.9255 33.6381 30.289 33.5916 29.7012 33.7771C29.1133 33.9625 28.6187 34.3658 28.3188 34.9043C28.0795 35.2933 27.8401 35.6722 27.5908 36.0412C27.1631 36.682 26.7038 37.3011 26.2146 37.8961C25.6915 38.5294 25.035 39.0393 24.2919 39.3893C23.5489 39.7393 22.7377 39.9208 21.9163 39.9208C21.095 39.9208 20.2838 39.7393 19.5407 39.3893C18.7977 39.0393 18.1412 38.5294 17.6181 37.8961C17.1394 37.2978 16.6807 36.6695 16.2419 36.0213C13.9998 32.5703 12.4518 28.7155 11.6844 24.6724C11.2291 22.4567 10.9424 20.2098 10.8267 17.9508C10.7506 16.5009 11.1922 15.0711 12.0727 13.9167C12.9531 12.7622 14.2152 11.9582 15.6335 11.648H15.7133C17.7655 11.2157 19.8446 10.9225 21.9363 10.7704C24.0277 10.9196 26.1067 11.2095 28.1592 11.6381H28.229C29.6455 11.9525 30.9043 12.7598 31.781 13.9159C32.6577 15.0721 33.0953 16.502 33.0159 17.9508C33.0159 18.3896 33.0159 18.8383 32.9262 19.3071C32.8961 19.6258 32.9297 19.9473 33.0251 20.2529C33.1205 20.5585 33.2757 20.8421 33.4818 21.0871C33.6878 21.3321 33.9405 21.5337 34.2253 21.6801C34.51 21.8265 34.821 21.9148 35.1401 21.9398L41.0439 22.4086C41.3611 22.4359 41.6805 22.4002 41.9838 22.3035C42.2871 22.2068 42.5682 22.0511 42.8111 21.8454C43.054 21.6396 43.2537 21.3878 43.3989 21.1045C43.544 20.8212 43.6317 20.512 43.6568 20.1946C43.9377 16.7221 43.9143 13.2317 43.587 9.7632C43.5054 8.95037 43.2622 8.16204 42.8717 7.44449C42.4813 6.72693 41.9514 6.09461 41.3132 5.58464C35.7684 1.20663 25.6661 0.229309 22.7341 -6.25979e-05C22.193 -0.0399368 21.6497 -0.0399368 21.1085 -6.25998e-05C18.1865 0.229309 8.07424 1.20663 2.52943 5.57467C1.89099 6.08361 1.36154 6.71585 0.97261 7.43374C0.583684 8.15162 0.343249 8.94045 0.265631 9.75322C-0.462375 17.1131 -1.13055 41.237 19.1539 53.1045C19.994 53.5942 20.9489 53.8522 21.9213 53.8522C22.8937 53.8522 23.8487 53.5942 24.6887 53.1045C30.1467 49.9469 34.6793 45.4109 37.8327 39.9505C38.1555 39.3935 38.2444 38.7312 38.0799 38.1088C37.9154 37.4863 37.511 36.9545 36.9551 36.6296L36.8055 36.5498L31.4801 33.9071Z" fill="#FFC247"/>
<path d="M95.8838 44.4583C89.7904 44.4583 85.4224 40.17 85.4224 33.7676C85.3785 32.4155 85.6019 31.0681 86.0796 29.8026C86.5574 28.537 87.2802 27.3782 88.2066 26.3924C89.1331 25.4067 90.2449 24.6135 91.4784 24.0582C92.712 23.503 94.0429 23.1966 95.3951 23.1566H96.0533C102.536 23.1566 106.156 27.8238 106.156 34.2762C106.156 34.5055 106.156 34.9743 106.156 35.4729H91.1966C91.3224 36.6533 91.8815 37.7451 92.7657 38.5372C93.6499 39.3293 94.7964 39.7654 95.9835 39.7611C96.7352 39.8247 97.4906 39.6906 98.1746 39.3723C98.8585 39.0539 99.4474 38.5623 99.8828 37.9461H105.866C104.63 41.7258 101.08 44.4682 95.9436 44.4682M100.491 31.773C100.427 30.6258 99.9223 29.5477 99.0824 28.7636C98.2426 27.9794 97.1324 27.5499 95.9835 27.5645C94.8038 27.5402 93.6579 27.9589 92.7717 28.738C91.8856 29.5171 91.3236 30.5999 91.1966 31.773H100.491Z" fill="#02033B"/>
<path d="M113.805 26.9761C114.962 24.5129 117.275 23.5455 119.898 23.4658V29.0604C118.843 29.0113 117.786 29.1291 116.767 29.4095C115.341 29.8682 113.994 30.8356 113.994 35.0839V43.7701H108.011V23.8248H113.795L113.805 26.9761Z" fill="#02033B"/>
<path d="M133.281 39.0331H134.477L136.532 43.7402H131.635C125.971 43.8599 124.814 40.4592 124.814 35.8319V29.0704H121.453V23.9345H124.814V19.4468L130.638 16.8638V23.9345H134.727V29.1103H130.638V34.8645C130.638 37.5671 130.748 39.063 133.261 39.063" fill="#02033B"/>
<path d="M135.545 33.7675C135.545 26.9761 140.631 23.1965 146.305 23.1965C151.98 23.1965 156.996 26.9761 156.996 33.7675C156.996 40.5589 151.94 44.4184 146.305 44.4184C140.671 44.4184 135.545 40.5988 135.545 33.7675ZM146.305 39.7511C149.357 39.7511 151.292 37.0485 151.292 33.7675C151.292 30.4865 149.367 27.7839 146.305 27.7839C143.244 27.7839 141.319 30.4865 141.319 33.7675C141.319 37.0485 143.254 39.7511 146.305 39.7511Z" fill="#02033B"/>
<path d="M70.9422 44.4582C63.0339 44.4582 56.9805 39.0131 56.9805 30.2172C57.0104 21.5809 63.1037 15.9563 71.0519 15.9563C77.953 15.9563 82.4707 19.347 84.2059 25.4503H78.1126C76.7264 22.3588 74.1235 21.2019 71.0519 21.2019C66.6939 21.2019 63.1835 24.832 63.1835 30.2671C63.1835 35.7022 66.7338 39.2425 71.0519 39.2425C74.8715 39.2425 76.9558 37.7765 78.0328 35.044H84.0862C82.5504 41.1373 77.6439 44.4882 70.8924 44.4882" fill="#02033B"/>
</svg>
