<svg width="130" height="83" viewBox="0 0 130 83" fill="none" xmlns="http://www.w3.org/2000/svg">
<g clip-path="url(#clip0_30_8350)">
<path fill-rule="evenodd" clip-rule="evenodd" d="M113.671 46.1501C111.371 48.1101 108.431 49.1801 105.411 49.1501C99.1306 49.1501 95.0605 44.7001 95.0605 37.8101C95.0605 33.8701 95.8806 31.2601 97.8006 29.1201C99.5206 27.1401 102.061 26.0501 104.681 26.1701C107.011 26.1001 109.281 26.9501 111.001 28.5201C113.001 30.5701 113.911 33.5201 113.911 38.1001V39.4301H101.271V39.6001C101.271 42.9801 102.931 44.9101 105.891 44.9101C107.941 44.8701 109.921 44.1001 111.451 42.7301L113.671 46.1501ZM108.001 35.2401V35.0001C108.121 33.8601 107.881 32.7101 107.321 31.7101C106.781 30.8501 105.811 30.3601 104.801 30.4301C102.621 30.4301 101.381 32.1401 101.381 35.1801V35.2601L108.001 35.2401Z" fill="#02033B"/>
<path fill-rule="evenodd" clip-rule="evenodd" d="M128.419 30.6201H124.739V41.62C124.739 44.4 125.249 45.1301 127.219 45.1301C127.919 45.09 128.609 44.94 129.269 44.71L129.999 48.1301C128.529 48.7801 126.939 49.1201 125.329 49.1301C122.429 49.1301 120.109 47.85 119.429 45.93C119.069 44.84 118.939 43.68 119.049 42.5401V30.6101H116.869V26.68H119.049C119.009 24.95 119.079 23.22 119.259 21.5L125.079 20.05C124.859 22.25 124.739 24.47 124.739 26.68H129.879L128.419 30.6201Z" fill="#02033B"/>
<path fill-rule="evenodd" clip-rule="evenodd" d="M86.37 18.85L86.5 31C86.5 33 86.75 36.86 86.97 39.18C86.11 36.29 85.02 33.46 83.72 30.74L78 18.84H71.39V32.35L56.31 0L0 26.26L26.25 82.57L82.56 56.31L77.11 44.63L77 35.88C77 33.4 76.91 29.88 76.7 27.45C77.26 29.29 79.06 33.45 80.7 37.21L85.8 48.59H92.04V18.85H86.37ZM54.08 48.28H49.28V41.88H52.62C57.13 41.88 60.98 39.41 60.98 33.75C60.98 28.55 57.55 25.62 52.7 25.62H48.47V40.13L43 48.28H11.6L27 25.63H12.92L17.2 19.23H40.43L25.13 41.88H40.92V19.23H54.08C62.1 18.94 68.84 25.2 69.13 33.22C69.42 41.24 63.16 47.98 55.14 48.27C55 48.27 54.85 48.27 54.71 48.27H54.08" fill="#02033B"/>
</g>
<defs>
<clipPath id="clip0_30_8350">
<rect width="130" height="82.56" fill="white"/>
</clipPath>
</defs>
</svg>
