<svg width="130" height="43" viewBox="0 0 130 43" fill="none" xmlns="http://www.w3.org/2000/svg">
<g clip-path="url(#clip0_30_8325)">
<path d="M0 42.52H42.52V0H0V42.52ZM20.02 10.24C19.35 8.1 18.62 7.41 14.85 7.41H11.94C11.06 7.41 10.87 7.6 10.87 8.39V14.46H12.29C15.29 14.46 15.93 13.91 16.29 11.9H17.02V18.68H16.29C15.89 16.42 14.76 15.85 12.29 15.85H10.86V22.18C10.86 24.19 11.4 24.42 13.69 24.51V25.24H4.61V24.49C6.5 24.41 7.04 24.18 7.04 22.16V9.07C7.04 7.06 6.5 6.83 4.67 6.75V6.02H20.72L20.82 10.25H20.02V10.24ZM38.26 10.24C37.65 8.17 36.75 7.41 34.72 7.41H32.35V22.16C32.35 24.17 32.87 24.4 35.05 24.49V25.24H25.79V24.51C27.95 24.43 28.49 24.2 28.49 22.18V7.43H26.13C24.12 7.43 23.2 8.18 22.59 10.26H21.63L22.03 6.03H38.87L39.23 10.26H38.26V10.24Z" fill="#02033B"/>
<path d="M51.8791 17.6899C51.8791 18.6899 52.1591 18.7699 53.2691 18.8099V19.1699H48.8491V18.8099C49.7691 18.7699 50.0491 18.6499 50.0491 17.6899V11.3199C50.0491 10.3199 49.7691 10.2399 48.8991 10.1999V9.83991H56.7091L56.7491 11.9099H56.3491C56.0291 10.8699 55.6691 10.5599 53.8391 10.5599H52.4091C51.9691 10.5599 51.8891 10.6399 51.8891 11.0399V13.9899H53.4891C54.9591 13.9899 55.2791 13.7099 55.4391 12.7499H55.7991V16.0599H55.4391C55.2391 14.9399 54.6791 14.6699 53.4891 14.6699H51.8891V17.6999L51.8791 17.6899ZM61.0791 17.6899C61.0791 18.6899 61.3591 18.7699 62.4691 18.8099V19.1699H57.8591V18.8099C58.9791 18.7699 59.2491 18.6499 59.2491 17.6899V11.3199C59.2491 10.3199 59.0091 10.2399 57.8591 10.1999V9.83991H62.4791V10.1999C61.3591 10.2399 61.0891 10.3599 61.0891 11.3199V17.6899H61.0791ZM72.1091 11.5599C72.1091 10.6399 71.8691 10.2799 70.8391 10.1699V9.80991H74.1491V10.1699C73.1091 10.2899 72.8791 10.6499 72.8791 11.5599V19.3699H72.3991L66.0291 11.9999V17.4199C66.0291 18.3399 66.2691 18.6999 67.2991 18.8099V19.1699H63.9891V18.8099C65.0291 18.6899 65.2591 18.3299 65.2591 17.4199V11.1299C65.0191 10.6199 64.5391 10.2699 63.9891 10.1699V9.80991H66.5391L72.1191 16.2599V11.5599H72.1091ZM77.0891 15.8199L78.4791 12.1199L79.8691 15.8199H77.0891ZM83.7791 19.1699V18.8099C83.0591 18.8099 82.8991 18.5299 82.5391 17.6599L79.2291 9.60991H78.7891L75.3691 17.9399C75.1991 18.4399 74.7391 18.7899 74.2191 18.8199V19.1799H77.2091V18.8199C76.5691 18.8199 76.2491 18.6599 76.2491 18.2199C76.3691 17.6299 76.5391 17.0599 76.7691 16.5099H80.1591C80.4091 17.0599 80.5891 17.6299 80.7191 18.2199C80.7191 18.6599 80.3591 18.8199 79.7191 18.8199V19.1799H83.7791V19.1699ZM92.8591 11.5399C92.8591 10.6199 92.6191 10.2599 91.5891 10.1499V9.78991H94.8991V10.1499C93.8591 10.2699 93.6291 10.6299 93.6291 11.5399V19.3499H93.1491L86.7891 11.9799V17.3999C86.7891 18.3199 87.0291 18.6799 88.0591 18.7899V19.1499H84.7491V18.7899C85.7891 18.6699 86.0191 18.3099 86.0191 17.3999V11.1099C85.7791 10.5999 85.2991 10.2499 84.7491 10.1499V9.78991H87.2991L92.8791 16.2399V11.5399H92.8591ZM104.679 16.9599C103.889 18.5199 102.249 19.4799 100.499 19.3899C97.4691 19.3899 95.6391 17.3999 95.6391 14.4099C95.6691 11.7199 97.8691 9.55991 100.559 9.58991H100.579C101.459 9.68991 102.329 9.87991 103.169 10.1499C103.449 10.1499 103.529 9.98991 103.769 9.58991H104.249L104.449 12.6999H104.049C103.679 11.2599 102.389 10.2299 100.899 10.1899C98.7091 10.1899 97.7491 12.5799 97.7491 14.3699C97.7491 16.8799 98.8191 18.5899 101.179 18.5899C102.519 18.5399 103.739 17.7999 104.409 16.6399L104.689 16.9599H104.679ZM109.179 17.6799C109.179 18.6799 109.459 18.7599 110.569 18.7999V19.1599H105.959V18.7999C107.079 18.7599 107.349 18.6399 107.349 17.6799V11.3099C107.349 10.3099 107.069 10.2299 105.959 10.1899V9.82991H110.579V10.1899C109.459 10.2299 109.189 10.3499 109.189 11.3099V17.6799H109.179ZM114.389 15.8099L115.779 12.1099L117.169 15.8099H114.389ZM121.079 19.1599V18.7999C120.359 18.7999 120.199 18.5199 119.839 17.6499L116.529 9.59991H116.089L112.669 17.9299C112.499 18.4299 112.039 18.7799 111.519 18.8099V19.1699H114.509V18.8099C113.869 18.8099 113.549 18.6499 113.549 18.2099C113.669 17.6199 113.839 17.0499 114.069 16.4999H117.459C117.699 17.0499 117.889 17.6199 118.019 18.2099C118.019 18.6499 117.659 18.8099 117.019 18.8099V19.1699H121.079V19.1599ZM121.919 19.1599V18.7999C122.799 18.7599 123.069 18.6399 123.069 17.6799V11.3099C123.069 10.3099 122.789 10.2299 121.919 10.1899V9.82991H126.219V10.1899C125.179 10.2299 124.949 10.3499 124.949 11.3099V17.8799C124.949 18.4399 125.109 18.6399 126.149 18.6399C127.819 18.6399 128.819 18.3199 129.609 16.6899H129.969L129.329 19.1999H121.919V19.1599ZM50.8591 33.8999C51.9291 33.8599 52.1691 33.7399 52.1691 32.7799V25.6099H51.0191C49.9491 25.6099 49.5091 26.0499 49.1891 27.3199H48.7891L49.0291 24.9299H57.2391L57.4791 27.3199H57.0791C56.7591 26.0399 56.3591 25.6099 55.2491 25.6099H54.0991V32.7799C54.0991 33.7799 54.3791 33.8599 55.4191 33.8999V34.2599H50.9191V33.8999H50.8591ZM61.6591 32.7799C61.6591 33.7799 61.9391 33.8599 63.0491 33.8999V34.2599H58.4291V33.8999C59.5491 33.8599 59.8191 33.7399 59.8191 32.7799V26.4099C59.8191 25.4099 59.5391 25.3299 58.4291 25.2899V24.9299H63.0591V25.2899C61.9391 25.3299 61.6691 25.4499 61.6691 26.4099V32.7799H61.6591ZM72.8491 24.8899H76.0791V25.2499C75.1991 25.2899 74.9291 25.4099 74.9291 26.3699V32.7399C74.9291 33.7399 75.2091 33.8199 76.0791 33.8599V34.2199H71.8491V33.8599C72.7691 33.8199 73.0491 33.6999 73.0491 32.7399V26.1699H73.0091L69.8991 34.3399H69.4591L66.3891 26.1699H66.3491V32.4599C66.3491 33.3799 66.5891 33.7399 67.6191 33.8499V34.2099H64.3091V33.8499C65.3491 33.7299 65.5791 33.3699 65.5791 32.4599V26.0899C65.5791 25.4499 65.2991 25.2099 64.3091 25.2099V24.8499H67.6991L70.1691 31.3399L72.8391 24.8899H72.8491ZM77.3891 34.2499V33.8899C78.2691 33.8499 78.5391 33.7299 78.5391 32.7699V26.3999C78.5391 25.3999 78.2591 25.3199 77.3891 25.2799V24.9199H85.1991L85.2391 26.9899H84.8391C84.5191 25.9499 84.1591 25.6399 82.3291 25.6399H80.8991C80.4591 25.6399 80.3791 25.7199 80.3791 26.1199V29.0699H81.9691C83.4391 29.0699 83.7591 28.7899 83.9191 27.8299H84.2791V31.1399H83.9191C83.7191 30.0199 83.1591 29.7899 81.9691 29.7899H80.3791V33.0199C80.3791 33.5799 80.5391 33.7799 82.2091 33.7799C83.8791 33.7799 84.8791 33.4599 85.6691 31.8299H86.0291L85.3891 34.3399H77.3791V34.2599H77.3891V34.2499ZM87.2691 31.2799H87.6291C88.0091 32.6399 89.1691 33.6499 90.5791 33.8299C91.3891 33.8999 92.0991 33.3099 92.1691 32.4999V32.2799C92.1691 30.1299 87.3091 29.7299 87.3091 27.0599C87.4191 25.6799 88.5891 24.6299 89.9791 24.6699C90.8291 24.7499 91.6691 24.9099 92.4891 25.1499C92.7491 25.1499 92.9591 24.9299 92.9691 24.6699H93.3291V27.6599H92.9691C92.7291 26.3699 91.6491 25.4099 90.3391 25.3099C89.6291 25.2299 88.9991 25.7299 88.9091 26.4399V26.6299C88.9091 28.5399 93.7691 28.5799 93.7691 31.8899C93.7291 33.3599 92.4991 34.5299 91.0291 34.4899H90.8591C89.2291 34.4899 88.7891 33.9299 88.1491 33.9299C87.9091 33.9299 87.7491 34.0899 87.6691 34.4099H87.1891L87.2691 31.2999V31.2799Z" fill="#02033B"/>
</g>
<defs>
<clipPath id="clip0_30_8325">
<rect width="130" height="42.52" fill="white"/>
</clipPath>
</defs>
</svg>
